<svg xmlns="http://www.w3.org/2000/svg" version="1">
  
  <symbol id="map" viewBox="0 0 120 120">
    <title>map</title>
    <path d="M120.7,0v23.1l-97.6,97.6H0V96.9L96.9,0H120.7z"/>
    <path d="M120.1,41.1v79h-79l18.6-18h42.4V59.7L120.1,41.1z"/>
    <path d="M0,0h79L60.3,18.6H18.6v41.1L0,78.3V0z"/>
  </symbol>

  <symbol id="mage" viewBox="0 0 120 120">
    <title>mage</title>
    <path d="M116.5,78.7l4.3,15.9c-0.4,0.4-0.6,0.4-1,0.4l-10.1,0.2C103.3,95,97,95,90.8,97.1c-7.2,2.3-13.6,5.8-18.9,11.3l-2.5,2.9	c3.5,0.4,7,0.2,10.5,0.4v9.1H40.8l0.2-9.1l10.3-0.4c-0.4-1-1-1.6-1.6-2.3c-7.4-7.8-16.5-12.1-26.8-13.6c-3.3-0.4-6.8-0.2-10.3-0.2	L1.2,95c-0.4,0-0.8,0-1.2-0.4c1.2-5.4,3.1-10.5,4.3-15.9c0.8-0.4,1.6-0.4,2.5-0.4c6.4-0.4,12.8-0.4,19.1,0.8	c8.4,1.6,15.6,5.1,21.8,10.9c3.1,2.9,6,6.4,8.6,9.5l3.1,3.5c0.2,0.2,0.6,0.6,1,0.6s0.6-0.4,0.8-0.6l8.2-9.3	c7.6-8.6,17.3-13.8,28.6-15.2c5.8-0.6,11.3-0.6,16.9-0.2L116.5,78.7z"/>
    <path d="M60.1,92.1l-1.6-1.9L42,69.1c-4.5-5.4-5.1-13.1-1.4-19.1c2.5-4.5,5.6-8.4,8-13l0.8-1.9l-8.2,3.3c-0.4,0-0.6-0.2-0.6-0.4	c-2.5-4.7-4.3-9.5-4.5-14.8c-0.2-6.6,2.7-11.7,7.6-15.6c4.5-3.9,9.9-6,15.4-7.4h0.4c0,0.6-0.4,0.8-0.6,1C57,3,55.2,4.6,53.5,6.7	c-1.9,2.3-3.3,4.9-3.5,8c-0.2,1.6,0,3.1,0.8,4.5c0.8,1.9,2.5,2.5,4.5,2.3c1.4-0.2,2.9-1,4.3-1.6c0.4-0.2,0.6-0.6,1.2-0.6l0.8,1.2	l17.9,28.4c3.3,5.4,3.9,10.9,1.2,16.9l-3.7,5.6c-4.7,5.6-9.1,11.3-13.6,17.1l-2.7,3.1L60.1,92.1z M60.1,75c0.4,0,0.4-0.2,0.6-0.4	c2.7-2.7,4.9-5.8,7.2-8.9c2.1-2.9,1.9-5.6,0.2-8.4l-3.7-6c-1-1.6-2.1-3.5-3.5-4.9c-0.2-0.2-0.4-0.6-0.8-0.6l-0.4,0.4L55,53.4	c-1.2,2.1-2.5,4.1-3.3,6.4c-0.4,1-0.4,2.1-0.2,3.1c0.6,1.9,1.4,3.5,2.7,4.9c1.9,2.5,4.1,4.5,5.8,7L60.1,75z"/>
  </symbol>

  <symbol id="twitter" viewBox="-2 -4 24 24">
    <title>twitter</title>
    <path d='M20 1.907a8.292 8.292 0 0 1-2.356.637A4.07 4.07 0 0 0 19.448.31a8.349 8.349 0 0 1-2.607.98A4.12 4.12 0 0 0 13.846.015c-2.266 0-4.103 1.81-4.103 4.04 0 .316.036.625.106.92A11.708 11.708 0 0 1 1.393.754a3.964 3.964 0 0 0-.554 2.03c0 1.403.724 2.64 1.824 3.363A4.151 4.151 0 0 1 .805 5.64v.05c0 1.958 1.415 3.591 3.29 3.963a4.216 4.216 0 0 1-1.08.141c-.265 0-.522-.025-.773-.075a4.098 4.098 0 0 0 3.832 2.807 8.312 8.312 0 0 1-5.095 1.727c-.332 0-.658-.02-.979-.056a11.727 11.727 0 0 0 6.289 1.818c7.547 0 11.673-6.157 11.673-11.496l-.014-.523A8.126 8.126 0 0 0 20 1.907z' />
  </symbol>

  <symbol id="facebook" viewBox="-7 -2 24 24">
    <title>facebook</title>
    <path d='M2.046 3.865v2.748H.032v3.36h2.014v9.986H6.18V9.974h2.775s.26-1.611.386-3.373H6.197V4.303c0-.343.45-.805.896-.805h2.254V0H6.283c-4.34 0-4.237 3.363-4.237 3.865z' />
  </symbol>

  <symbol id="instagram" viewBox="-2 -2 24 24">
    <title>instagram</title>
    <path d='M14.017 0h-8.07A5.954 5.954 0 0 0 0 5.948v8.07a5.954 5.954 0 0 0 5.948 5.947h8.07a5.954 5.954 0 0 0 5.947-5.948v-8.07A5.954 5.954 0 0 0 14.017 0zm3.94 14.017a3.94 3.94 0 0 1-3.94 3.94h-8.07a3.94 3.94 0 0 1-3.939-3.94v-8.07a3.94 3.94 0 0 1 3.94-3.939h8.07a3.94 3.94 0 0 1 3.939 3.94v8.07z'/><path d='M9.982 4.819A5.17 5.17 0 0 0 4.82 9.982a5.17 5.17 0 0 0 5.163 5.164 5.17 5.17 0 0 0 5.164-5.164A5.17 5.17 0 0 0 9.982 4.82zm0 8.319a3.155 3.155 0 1 1 0-6.31 3.155 3.155 0 0 1 0 6.31z'/>
    <circle cx='15.156' cy='4.858' r='1.237'/>
  </symbol>

    <symbol id="twitch" viewBox="-2.5 -2 24 24">
    <title>twitch</title>
    <path d='M1.25 0L0 3.75V17.5h5V20h2.5l2.5-2.5h3.75l5-5.325V0H1.25zM17.5 11.25L14 15H9.568l-2.693 1.959V15H2.5V1.25h15v10z'/><path d='M8.75 5H10v5H8.75zM12.5 5h1.25v5H12.5z'/>
  </symbol>

    <symbol id="arrow"  viewBox="0 0 451.847 451.847">
    <title>arrow</title>
    <path d="M225.923,354.706c-8.098,0-16.195-3.092-22.369-9.263L9.27,151.157c-12.359-12.359-12.359-32.397,0-44.751
		c12.354-12.354,32.388-12.354,44.748,0l171.905,171.915l171.906-171.909c12.359-12.354,32.391-12.354,44.744,0
		c12.365,12.354,12.365,32.392,0,44.751L248.292,345.449C242.115,351.621,234.018,354.706,225.923,354.706z"/>
  </symbol>

  <symbol id="search" viewBox="-2 -2 24 24">
    <title>search</title>
    <path d="M17.545 15.467l-3.779-3.779a6.15 6.15 0 0 0 .898-3.21c0-3.417-2.961-6.377-6.378-6.377S2.1 4.87 2.1 8.287c0 3.416 2.961 6.377 6.377 6.377a6.15 6.15 0 0 0 3.115-.844l3.799 3.801a.953.953 0 0 0 1.346 0l.943-.943c.371-.371.236-.84-.135-1.211zM4.004 8.287c0-2.366 1.917-4.283 4.282-4.283s4.474 2.107 4.474 4.474c0 2.365-1.918 4.283-4.283 4.283s-4.473-2.109-4.473-4.474z"></path>
  </symbol>

</svg>
